<svg xmlns="http://www.w3.org/2000/svg" fill="none" viewBox="0 0 526 150" height="150" width="526">
<rect stroke-width="2" stroke="white" height="148" width="148" y="1" x="377"></rect>
<path fill="white" d="M314.449 111.193C311.29 111.193 308.403 110.58 305.79 109.352C303.176 108.102 301.096 106.307 299.551 103.966C298.006 101.602 297.233 98.7387 297.233 95.375C297.233 92.7841 297.721 90.6023 298.699 88.8296C299.676 87.0568 301.062 85.6023 302.858 84.4659C304.653 83.3296 306.778 82.4318 309.233 81.7727C311.687 81.1137 314.392 80.6023 317.346 80.2387C320.278 79.875 322.756 79.5568 324.778 79.2841C326.824 79.0114 328.381 78.5796 329.449 77.9887C330.517 77.3977 331.051 76.4432 331.051 75.125V73.8977C331.051 70.3296 329.983 67.5227 327.846 65.4773C325.733 63.4091 322.687 62.375 318.71 62.375C314.937 62.375 311.858 63.2046 309.471 64.8637C307.108 66.5227 305.449 68.4773 304.494 70.7273L298.733 68.6477C299.915 65.7841 301.551 63.5 303.642 61.7955C305.733 60.0682 308.074 58.8296 310.665 58.0796C313.256 57.3068 315.881 56.9205 318.54 56.9205C320.54 56.9205 322.619 57.1818 324.778 57.7046C326.96 58.2273 328.983 59.1364 330.846 60.4318C332.71 61.7046 334.221 63.4886 335.381 65.7841C336.54 68.0568 337.119 70.9432 337.119 74.4432V110H331.051V101.716H330.676C329.949 103.261 328.869 104.761 327.437 106.216C326.006 107.67 324.21 108.864 322.051 109.795C319.892 110.727 317.358 111.193 314.449 111.193ZM315.267 105.636C318.494 105.636 321.29 104.92 323.653 103.489C326.017 102.057 327.835 100.159 329.108 97.7955C330.403 95.4091 331.051 92.7841 331.051 89.9205V82.3523C330.596 82.7841 329.835 83.1705 328.767 83.5114C327.721 83.8523 326.506 84.1591 325.119 84.4318C323.756 84.6818 322.392 84.8977 321.028 85.0796C319.665 85.2614 318.437 85.4205 317.346 85.5568C314.392 85.9205 311.869 86.4886 309.778 87.2614C307.687 88.0341 306.085 89.1023 304.971 90.4659C303.858 91.8068 303.301 93.5341 303.301 95.6477C303.301 98.8296 304.437 101.295 306.71 103.045C308.983 104.773 311.835 105.636 315.267 105.636Z"></path>
<path fill="white" d="M217.418 110V57.6364H223.315V65.6818H223.861C224.906 62.9773 226.645 60.8523 229.077 59.3068C231.531 57.7387 234.474 56.9546 237.906 56.9546C241.52 56.9546 244.486 57.8068 246.804 59.5114C249.145 61.1932 250.895 63.5114 252.054 66.4659H252.497C253.679 63.5568 255.599 61.25 258.258 59.5455C260.94 57.8182 264.19 56.9546 268.008 56.9546C272.872 56.9546 276.713 58.4887 279.531 61.5568C282.349 64.6023 283.758 69.0568 283.758 74.9205V110H277.69V74.9205C277.69 70.7841 276.633 67.6818 274.52 65.6137C272.406 63.5455 269.622 62.5114 266.167 62.5114C262.167 62.5114 259.088 63.7386 256.929 66.1932C254.77 68.6477 253.69 71.7614 253.69 75.5341V110H247.486V74.375C247.486 70.8296 246.497 67.9659 244.52 65.7841C242.543 63.6023 239.758 62.5114 236.168 62.5114C233.758 62.5114 231.588 63.1023 229.656 64.2841C227.747 65.4659 226.236 67.1137 225.122 69.2273C224.031 71.3182 223.486 73.7273 223.486 76.4546V110H217.418Z"></path>
<path fill="white" d="M182.807 111.091C177.92 111.091 173.693 109.955 170.125 107.682C166.557 105.386 163.795 102.216 161.841 98.1705C159.909 94.1023 158.943 89.4205 158.943 84.125C158.943 78.8523 159.909 74.1705 161.841 70.0796C163.795 65.9659 166.489 62.75 169.92 60.4318C173.375 58.0909 177.364 56.9205 181.886 56.9205C184.727 56.9205 187.466 57.4432 190.102 58.4886C192.739 59.5114 195.102 61.0909 197.193 63.2273C199.307 65.3409 200.977 68.0114 202.204 71.2387C203.432 74.4432 204.045 78.2387 204.045 82.625V85.625H163.136V80.2727H197.841C197.841 76.9091 197.159 73.8864 195.795 71.2046C194.454 68.5 192.579 66.3637 190.17 64.7955C187.784 63.2273 185.023 62.4432 181.886 62.4432C178.568 62.4432 175.648 63.3296 173.125 65.1023C170.602 66.875 168.625 69.2159 167.193 72.125C165.784 75.0341 165.068 78.2159 165.045 81.6705V84.875C165.045 89.0341 165.761 92.6705 167.193 95.7841C168.648 98.875 170.704 101.273 173.364 102.977C176.023 104.682 179.17 105.534 182.807 105.534C185.284 105.534 187.454 105.148 189.318 104.375C191.204 103.602 192.784 102.568 194.057 101.273C195.352 99.9546 196.329 98.5114 196.989 96.9432L202.75 98.8182C201.954 101.023 200.648 103.057 198.829 104.92C197.034 106.784 194.784 108.284 192.079 109.42C189.398 110.534 186.307 111.091 182.807 111.091Z"></path>
<path fill="white" d="M111.736 77.2727V110H105.668V40.1818H111.736V65.8523H112.281C113.508 63.1477 115.406 60.9886 117.974 59.375C120.565 57.7614 123.838 56.9546 127.793 56.9546C131.338 56.9546 134.452 57.6818 137.133 59.1364C139.815 60.5909 141.906 62.7386 143.406 65.5796C144.906 68.4205 145.656 71.9205 145.656 76.0796V110H139.554V76.4546C139.554 72.1364 138.349 68.7386 135.94 66.2614C133.554 63.7614 130.327 62.5114 126.258 62.5114C123.463 62.5114 120.974 63.1023 118.793 64.2841C116.611 65.4659 114.883 67.1705 113.611 69.3977C112.361 71.6023 111.736 74.2273 111.736 77.2727Z"></path>
<path fill="white" d="M72.6846 111.091C68.0027 111.091 63.9232 109.92 60.4459 107.58C56.9914 105.239 54.3096 102.034 52.4005 97.9659C50.4914 93.8977 49.5368 89.2614 49.5368 84.0568C49.5368 78.8068 50.5027 74.1364 52.4346 70.0455C54.3891 65.9546 57.0936 62.75 60.5482 60.4318C64.0027 58.0909 68.0141 56.9205 72.5823 56.9205C76.0823 56.9205 79.2527 57.6023 82.0937 58.9659C84.9346 60.3068 87.2755 62.2046 89.1164 64.6591C90.98 67.0909 92.1505 69.9318 92.6277 73.1818H86.4914C85.855 70.2273 84.3209 67.7046 81.8891 65.6137C79.48 63.5 76.4118 62.4432 72.6846 62.4432C69.3437 62.4432 66.3891 63.3523 63.8209 65.1705C61.2527 66.9659 59.2414 69.4773 57.7868 72.7046C56.355 75.9091 55.6391 79.625 55.6391 83.8523C55.6391 88.1023 56.3437 91.8636 57.7527 95.1364C59.1618 98.3864 61.1391 100.932 63.6846 102.773C66.2527 104.614 69.2527 105.534 72.6846 105.534C75.0027 105.534 77.1164 105.102 79.0255 104.239C80.9573 103.352 82.5709 102.102 83.8664 100.489C85.1846 98.875 86.0709 96.9546 86.5255 94.7273H92.6618C92.2073 97.8864 91.0823 100.705 89.2868 103.182C87.5141 105.636 85.2073 107.568 82.3664 108.977C79.5482 110.386 76.3209 111.091 72.6846 111.091Z"></path>
<path fill="white" d="M38.1931 69.125L32.6363 70.6932C32.0908 69.125 31.3181 67.7046 30.3181 66.4318C29.3181 65.1591 28.0113 64.1477 26.3976 63.3977C24.8067 62.6477 22.8294 62.2727 20.4658 62.2727C16.9203 62.2727 14.0113 63.1137 11.7385 64.7955C9.4658 66.4773 8.32943 68.6477 8.32943 71.3068C8.32943 73.5568 9.10216 75.3864 10.6476 76.7955C12.2158 78.1818 14.6249 79.2841 17.8749 80.1023L25.784 82.0455C30.1703 83.1137 33.4544 84.8068 35.6363 87.125C37.8408 89.4432 38.9431 92.3523 38.9431 95.8523C38.9431 98.8068 38.1249 101.432 36.4885 103.727C34.8522 106.023 32.5681 107.83 29.6363 109.148C26.7272 110.443 23.3522 111.091 19.5113 111.091C14.3976 111.091 10.1817 109.943 6.86352 107.648C3.54534 105.33 1.42034 101.989 0.488525 97.625L6.31807 96.1932C7.06807 99.3068 8.53398 101.659 10.7158 103.25C12.9203 104.841 15.8181 105.636 19.409 105.636C23.4317 105.636 26.6476 104.739 29.0567 102.943C31.4658 101.125 32.6703 98.8523 32.6703 96.125C32.6703 94.0114 31.9658 92.2386 30.5567 90.8068C29.1476 89.3523 27.0113 88.2841 24.1476 87.6023L15.5908 85.5568C11.0453 84.4659 7.68171 82.7387 5.49989 80.375C3.31807 78.0114 2.22716 75.0796 2.22716 71.5796C2.22716 68.6932 3.01125 66.1591 4.57943 63.9773C6.14762 61.7727 8.30671 60.0455 11.0567 58.7955C13.8067 57.5455 16.9431 56.9205 20.4658 56.9205C25.2613 56.9205 29.0908 58.0114 31.9544 60.1932C34.8408 62.3523 36.9203 65.3296 38.1931 69.125Z"></path>
<path fill="white" d="M492.94 40.1818V110H480.292V40.1818H492.94Z"></path>
<path fill="white" d="M453.898 40.1818H466.545V85.7955C466.545 90.7955 465.364 95.1932 463 98.9886C460.659 102.784 457.364 105.75 453.114 107.886C448.864 110 443.898 111.057 438.216 111.057C432.511 111.057 427.534 110 423.284 107.886C419.034 105.75 415.739 102.784 413.398 98.9886C411.057 95.1932 409.886 90.7955 409.886 85.7955V40.1818H422.534V84.7386C422.534 87.6477 423.17 90.2386 424.443 92.5114C425.739 94.7841 427.557 96.5682 429.898 97.8636C432.239 99.1364 435.011 99.7727 438.216 99.7727C441.42 99.7727 444.193 99.1364 446.534 97.8636C448.898 96.5682 450.716 94.7841 451.989 92.5114C453.261 90.2386 453.898 87.6477 453.898 84.7386V40.1818Z"></path>
</svg>
